<svg version="1" xmlns="http://www.w3.org/2000/svg" width="2730.667" height="2730.667" viewBox="0 0 2048.000000 2048.000000"><path d="M724.8 251.6c-.2.1-4.4.5-9.3.8-8.9.6-16.7 1.3-23.5 2.1-1.9.3-5.7.7-8.5 1-12.6 1.5-37 6.3-55.8 11-39.9 9.8-93.5 35.9-126.7 61.5-22 17.1-45.7 39.3-60.4 56.8-3.8 4.5-7 8.1-7.1 8-.2-.2-.6-5-.9-10.8-.4-5.8-.9-12.3-1.1-14.5-.2-2.2-.6-7.8-1-12.5-.3-4.7-.8-11-1-14-.5-6.2-1.3-16.8-2-28-.2-4.1-.7-9.8-1-12.5-.3-2.8-.8-9.3-1.1-14.5-.6-8.8-1-12.7-1.3-14-.1-.7-171.1-.7-171.2 0-.1.3-.3 343.1-.3 761.7l-.2 761.3h188.2l-.1-263.3c0-144.7.1-263.7.3-264.3.1-.6 6 4.6 13 11.6 7 6.9 15.6 15.1 19.1 18.1 3.5 3 6.9 5.9 7.5 6.4.6.6 5.6 4.5 11.1 8.7 33.1 25 69.9 44.4 109.5 57.5 7.4 2.5 14.4 4.6 15.4 4.9 1 .2 3.3.8 5 1.3 1.7.6 4.2 1.3 5.6 1.5 1.4.3 5.2 1.2 8.5 2 13.1 3.2 25.6 5.5 44 8.1 2.3.3 5.1.7 6.3 1 1.2.2 6.1.7 11 1 4.8.4 9.7.8 11 1 12.9 2.1 75.8 2.2 89.2.1 1.4-.2 5.4-.7 9-1 20.2-1.9 46.4-7.1 69-13.8 35-10.3 73.1-28.9 104.5-51.1 31.3-22.2 62.2-52.1 85.8-83.2.4-.5 2.1-2.8 3.7-4.9 1.7-2.2 7.2-10.3 12.4-18 33.8-50.9 58.3-107.7 76-175.8 2.9-11.1 8.8-37.8 10.1-45.3.6-3.4 2.3-12.8 3-16.5.3-1.4.8-4.5 1.1-7 .3-2.5.7-5.6 1-7 1.5-9 5-39.3 5.9-51 .4-4.7.9-10.1 1-12 1.4-14.2 2-39.6 2-83.5 0-55.6-.5-67.1-4.1-106-.5-5.8-1.7-16.2-3-27-.7-5.9-4.4-30.9-5-33.6-.2-1.3-.6-3.8-.9-5.4-.7-5.4-6.5-33.9-8.1-40-.9-3.3-1.8-6.9-2-7.9-1-5.2-5-19.9-9.6-35.4l-5.1-17.4 3.2-6.6c13.7-27.9 36.2-56 60.5-75.7 5.8-4.6 6.1-4.9 19.2-13.6 23-15.5 55.8-29.4 80.9-34.5 6.9-1.4 20.8-3.7 25-4.1 2.8-.3 7.7-.9 11-1.3 6.4-.9 63.3-.6 67.5.3 1.4.3 5.7.8 9.5 1.1 3.9.4 8.1.8 9.5 1.1 1.4.2 4.5.6 7 .9 2.5.3 5.6.8 7 1.1 1.4.3 4.1.8 6.1 1.1 3 .4 19.2 4.1 25.9 5.8 7.8 2 19.9 6.8 31.5 12.6 61.3 30.3 94.9 93.9 99.1 187.5.1 2.7.2 172.3.3 376.7l.1 371.8h94c74.5 0 94-.3 94.1-1.3 0-.6.1-167.7.1-371.2.1-331.8-.2-390.7-1.7-405.7-.2-2.4-.7-7.7-1-11.8-.3-4.1-.8-8.9-1-10.5-.2-1.7-.6-5.3-.9-8-1.6-15.3-6.1-41.4-10.2-59-9.3-39.6-23.1-75.2-40.4-104.3-3-5.1-5.9-10.1-6.5-11-1.2-2.1-12.1-17.7-14-20-.7-.9-3.7-4.6-6.6-8.2-7.7-9.6-28.1-29.6-38.9-38.1-38.8-30.8-82.1-50.1-137.5-61.4-14.1-2.8-22.3-4.3-28.5-5-2.5-.3-5.6-.8-7-1-1.4-.2-5.6-.7-9.5-1-3.8-.4-8.1-.8-9.5-1-16.1-2.5-92.7-2.5-105.8 0-.9.1-4.8.6-8.7 1-16.2 1.7-18.9 2.1-37 5.7-18.7 3.7-16 3.1-29.4 6.7-48.3 13.3-92.4 35.4-135.5 67.9-20.4 15.4-42.5 35.8-58.1 53.7-3.3 3.8-6.9 7.9-8.1 9.2-1.2 1.2-4.8 5.7-8 9.9s-6.8 8.8-7.9 10.1l-2 2.4-10-13.3c-25.6-34.2-54.4-62.6-87.2-86-10.6-7.6-33.5-21.8-35.1-21.8-.6 0-1.2-.3-1.4-.8-.1-.4-5.7-3.4-12.3-6.8-34.8-17.6-80.8-31.7-118.4-36-3.1-.3-6.4-.8-7.5-1-1-.2-4.8-.6-8.5-.9-3.6-.4-8.6-.8-11.1-1.1-5.1-.6-64.8-1.3-65.2-.8zm5.7 160.7c1.7.3 6.8 1.1 11.5 1.7 49.1 6.4 91.9 25.8 130.5 59.1 20.1 17.3 40.6 41 53 61.2 15.7 25.7 24.2 42.5 33 65.2 3.7 9.5 12 34 13.1 38.5.2.8 1.3 5.1 2.4 9.5 1.1 4.4 2.3 8.9 2.5 10 3.3 14.8 4.7 21.7 6.4 30.5 2.9 15.8 3.2 17.8 5.6 37 .3 2.5.8 5.8 1 7.5.2 1.6.7 6.4 1 10.5.4 4.1.8 9.3 1 11.5 2.7 27.7 2.7 112.5 0 137.5-.2 1.9-.6 7.1-1 11.5-.3 4.4-1 10.9-1.5 14.5-.5 3.6-1.2 9-1.5 12-.3 3-.8 6.8-1.1 8.5-.3 1.6-.7 4.1-.9 5.5-.4 2.9-.7 4.5-3.4 19-1.1 5.8-2.2 11.6-2.6 13-.3 1.4-.8 3.8-1.1 5.5-1.3 7.5-7.9 31.9-11.9 44.3-7.5 23.4-19.7 51.8-30.6 71.2-3.1 5.5-15.6 25.6-17.2 27.5-.4.5-3.5 4.6-6.8 9-29.1 38.8-69.1 70.2-110.9 87-17.2 6.9-39.9 12.9-56.7 15-2.6.4-5.9.8-7.2 1-15 2.5-68.4 2.5-81 0-1.1-.2-4.1-.6-6.8-1-2.6-.4-5.9-.9-7.3-1.1-1.4-.2-4.1-.7-6-1-7.2-1.1-28.7-6.7-38.9-10.1-53.9-17.8-96-48.7-131.2-96.3-3.1-4.1-6.4-8.9-7.5-10.5-1-1.7-2.1-3.2-2.4-3.5-1.3-1-14.1-22-14.8-24.2-.4-1.3-.7-120.3-.7-264.4l.1-262.2 5.9-9.8c37.8-62.4 87.1-104.4 146.8-125 13.7-4.7 31-9.4 39.7-10.8 15.9-2.6 24.5-3.7 31.4-4.2 4.5-.4 8.3-.8 8.5-1 .6-.5 54.2.3 57.6.9z"/></svg>