<?xml version="1.0" standalone="no"?>
<!DOCTYPE svg PUBLIC "-//W3C//DTD SVG 20010904//EN"
 "http://www.w3.org/TR/2001/REC-SVG-20010904/DTD/svg10.dtd">
<svg version="1.0" xmlns="http://www.w3.org/2000/svg"
 width="2048.000000pt" height="2048.000000pt" viewBox="0 0 2048.000000 2048.000000"
 preserveAspectRatio="xMidYMid meet">
<metadata>
Created by potrace 1.11, written by Peter Selinger 2001-2013
</metadata>
<g transform="translate(0.000000,2048.000000) scale(0.100000,-0.100000)"
fill="#000000" stroke="none">
<path d="M7248 17964 c-2 -1 -44 -5 -93 -8 -89 -6 -167 -13 -235 -21 -19 -3
-57 -7 -85 -10 -126 -15 -370 -63 -558 -110 -399 -98 -935 -359 -1267 -615
-220 -171 -457 -393 -604 -568 -38 -45 -70 -81 -71 -80 -2 2 -6 50 -9 108 -4
58 -9 123 -11 145 -2 22 -6 78 -10 125 -3 47 -8 110 -10 140 -5 62 -13 168
-20 280 -2 41 -7 98 -10 125 -3 28 -8 93 -11 145 -6 88 -10 127 -13 140 -1 7
-1711 7 -1712 0 -1 -3 -3 -3431 -3 -7617 l-2 -7613 941 0 941 0 -1 2633 c0
1447 1 2637 3 2643 1 6 60 -46 130 -116 70 -69 156 -151 191 -181 35 -30 69
-59 75 -64 6 -6 56 -45 111 -87 331 -250 699 -444 1095 -575 74 -25 144 -46
154 -49 10 -2 33 -8 50 -13 17 -6 42 -13 56 -15 14 -3 52 -12 85 -20 131 -32
256 -55 440 -81 23 -3 51 -7 63 -10 12 -2 61 -7 110 -10 48 -4 97 -8 110 -10
129 -21 758 -22 892 -1 14 2 54 7 90 10 202 19 464 71 690 138 350 103 731
289 1045 511 313 222 622 521 858 832 4 5 21 28 37 49 17 22 72 103 124 180
338 509 583 1077 760 1758 29 111 88 378 101 453 6 34 23 128 30 165 3 14 8
45 11 70 3 25 7 56 10 70 15 90 50 393 59 510 4 47 9 101 10 120 14 142 20
396 20 835 0 556 -5 671 -41 1060 -5 58 -17 162 -30 270 -7 59 -44 309 -50
336 -2 13 -6 38 -9 54 -7 54 -65 339 -81 400 -9 33 -18 69 -20 79 -10 52 -50
199 -96 354 l-51 174 32 66 c137 279 362 560 605 757 58 46 61 49 192 136 230
155 558 294 809 345 69 14 208 37 250 41 28 3 77 9 110 13 64 9 633 6 675 -3
14 -3 57 -8 95 -11 39 -4 81 -8 95 -11 14 -2 45 -6 70 -9 25 -3 56 -8 70 -11
14 -3 41 -8 61 -11 30 -4 192 -41 259 -58 78 -20 199 -68 315 -126 613 -303
949 -939 991 -1875 1 -27 2 -1723 3 -3767 l1 -3718 940 0 c745 0 940 3 941 13
0 6 1 1677 1 3712 1 3318 -2 3907 -17 4057 -2 24 -7 77 -10 118 -3 41 -8 89
-10 105 -2 17 -6 53 -9 80 -16 153 -61 414 -102 590 -93 396 -231 752 -404
1043 -30 51 -59 101 -65 110 -12 21 -121 177 -140 200 -7 9 -37 46 -66 82 -77
96 -281 296 -389 381 -388 308 -821 501 -1375 614 -141 28 -223 43 -285 50
-25 3 -56 8 -70 10 -14 2 -56 7 -95 10 -38 4 -81 8 -95 10 -161 25 -927 25
-1058 0 -9 -1 -48 -6 -87 -10 -162 -17 -189 -21 -370 -57 -187 -37 -160 -31
-294 -67 -483 -133 -924 -354 -1355 -679 -204 -154 -425 -358 -581 -537 -33
-38 -69 -79 -81 -92 -12 -12 -48 -57 -80 -99 -32 -42 -68 -88 -79 -101 l-20
-24 -100 133 c-256 342 -544 626 -872 860 -106 76 -335 218 -351 218 -6 0 -12
3 -14 8 -1 4 -57 34 -123 68 -348 176 -808 317 -1184 360 -31 3 -64 8 -75 10
-10 2 -48 6 -85 9 -36 4 -86 8 -111 11 -51 6 -648 13 -652 8z m57 -1607 c17
-3 68 -11 115 -17 491 -64 919 -258 1305 -591 201 -173 406 -410 530 -612 157
-257 242 -425 330 -652 37 -95 120 -340 131 -385 2 -8 13 -51 24 -95 11 -44
23 -89 25 -100 33 -148 47 -217 64 -305 29 -158 32 -178 56 -370 3 -25 8 -58
10 -75 2 -16 7 -64 10 -105 4 -41 8 -93 10 -115 27 -277 27 -1125 0 -1375 -2
-19 -6 -71 -10 -115 -3 -44 -10 -109 -15 -145 -5 -36 -12 -90 -15 -120 -3 -30
-8 -68 -11 -85 -3 -16 -7 -41 -9 -55 -4 -29 -7 -45 -34 -190 -11 -58 -22 -116
-26 -130 -3 -14 -8 -38 -11 -55 -13 -75 -79 -319 -119 -443 -75 -234 -197
-518 -306 -712 -31 -55 -156 -256 -172 -275 -4 -5 -35 -46 -68 -90 -291 -388
-691 -702 -1109 -870 -172 -69 -399 -129 -567 -150 -26 -4 -59 -8 -72 -10
-150 -25 -684 -25 -810 0 -11 2 -41 6 -68 10 -26 4 -59 9 -73 11 -14 2 -41 7
-60 10 -72 11 -287 67 -389 101 -539 178 -960 487 -1312 963 -31 41 -64 89
-75 105 -10 17 -21 32 -24 35 -13 10 -141 220 -148 242 -4 13 -7 1203 -7 2644
l1 2622 59 98 c378 624 871 1044 1468 1250 137 47 310 94 397 108 159 26 245
37 314 42 45 4 83 8 85 10 6 5 542 -3 576 -9z"/>
</g>
</svg>
